


<svg  viewBox="0 0 312 184" fill="none" xmlns="http://www.w3.org/2000/svg">
<g clip-path="url(#clip0_87_700)">
<path d="M311 175.669H7.35826V184H311V175.669Z" fill="#65617D"/>
<path opacity="0.1" d="M215.619 67.8149C215.621 68.0356 215.636 68.256 215.665 68.4748C215.636 68.256 215.621 68.0356 215.619 67.8149Z" fill="#3B82F6"/>
<path opacity="0.1" d="M218.346 72.3132C217.953 72.1078 217.589 71.851 217.264 71.5496C217.589 71.851 217.953 72.1078 218.346 72.3132Z" fill="#3B82F6"/>
<g opacity="0.1">
<path d="M113.524 5.57861H94.8318C93.2558 5.57861 91.9782 6.85842 91.9782 8.43713V13.8804C91.9782 15.4591 93.2558 16.7389 94.8318 16.7389H113.524C115.1 16.7389 116.377 15.4591 116.377 13.8804V8.43713C116.377 6.85842 115.1 5.57861 113.524 5.57861Z" fill="#3B82F6"/>
<path d="M137.923 5.57861H119.231C117.655 5.57861 116.377 6.85842 116.377 8.43713V13.8804C116.377 15.4591 117.655 16.7389 119.231 16.7389H137.923C139.499 16.7389 140.776 15.4591 140.776 13.8804V8.43713C140.776 6.85842 139.499 5.57861 137.923 5.57861Z" fill="#3B82F6"/>
<path d="M162.322 5.57861H143.63C142.054 5.57861 140.776 6.85842 140.776 8.43713V13.8804C140.776 15.4591 142.054 16.7389 143.63 16.7389H162.322C163.898 16.7389 165.175 15.4591 165.175 13.8804V8.43713C165.175 6.85842 163.898 5.57861 162.322 5.57861Z" fill="#3B82F6"/>
<path d="M186.718 5.57861H168.026C166.45 5.57861 165.172 6.85842 165.172 8.43713V13.8804C165.172 15.4591 166.45 16.7389 168.026 16.7389H186.718C188.294 16.7389 189.571 15.4591 189.571 13.8804V8.43713C189.571 6.85842 188.294 5.57861 186.718 5.57861Z" fill="#3B82F6"/>
<path d="M113.524 16.1223H94.8318C93.2558 16.1223 91.9782 17.4021 91.9782 18.9808V24.4241C91.9782 26.0028 93.2558 27.2826 94.8318 27.2826H113.524C115.1 27.2826 116.377 26.0028 116.377 24.4241V18.9808C116.377 17.4021 115.1 16.1223 113.524 16.1223Z" fill="#3B82F6"/>
<path d="M137.923 16.1223H119.231C117.655 16.1223 116.377 17.4021 116.377 18.9808V24.4241C116.377 26.0028 117.655 27.2826 119.231 27.2826H137.923C139.499 27.2826 140.776 26.0028 140.776 24.4241V18.9808C140.776 17.4021 139.499 16.1223 137.923 16.1223Z" fill="#3B82F6"/>
<path d="M162.322 16.1223H143.63C142.054 16.1223 140.776 17.4021 140.776 18.9808V24.4241C140.776 26.0028 142.054 27.2826 143.63 27.2826H162.322C163.898 27.2826 165.175 26.0028 165.175 24.4241V18.9808C165.175 17.4021 163.898 16.1223 162.322 16.1223Z" fill="#3B82F6"/>
<path d="M186.718 16.1223H168.026C166.45 16.1223 165.172 17.4021 165.172 18.9808V24.4241C165.172 26.0028 166.45 27.2826 168.026 27.2826H186.718C188.294 27.2826 189.571 26.0028 189.571 24.4241V18.9808C189.571 17.4021 188.294 16.1223 186.718 16.1223Z" fill="#3B82F6"/>
<path d="M88.5839 26.6343H70.9735C69.0989 26.6343 67.5792 28.1566 67.5792 30.0345V34.3944C67.5792 36.2723 69.0989 37.7946 70.9735 37.7946H88.5839C90.4585 37.7946 91.9782 36.2723 91.9782 34.3944V30.0345C91.9782 28.1566 90.4585 26.6343 88.5839 26.6343Z" fill="#3B82F6"/>
<path d="M137.382 26.6343H119.772C117.897 26.6343 116.377 28.1566 116.377 30.0345V34.3944C116.377 36.2723 117.897 37.7946 119.772 37.7946H137.382C139.257 37.7946 140.776 36.2723 140.776 34.3944V30.0345C140.776 28.1566 139.257 26.6343 137.382 26.6343Z" fill="#3B82F6"/>
<path d="M161.781 26.6343H144.171C142.296 26.6343 140.776 28.1566 140.776 30.0345V34.3944C140.776 36.2723 142.296 37.7946 144.171 37.7946H161.781C163.656 37.7946 165.175 36.2723 165.175 34.3944V30.0345C165.175 28.1566 163.656 26.6343 161.781 26.6343Z" fill="#3B82F6"/>
<path d="M186.177 26.6343H168.567C166.692 26.6343 165.172 28.1566 165.172 30.0345V34.3944C165.172 36.2723 166.692 37.7946 168.567 37.7946H186.177C188.052 37.7946 189.571 36.2723 189.571 34.3944V30.0345C189.571 28.1566 188.052 26.6343 186.177 26.6343Z" fill="#3B82F6"/>
<path d="M112.983 37.1753H95.3726C93.4979 37.1753 91.9782 38.6976 91.9782 40.5756V44.9354C91.9782 46.8133 93.4979 48.3356 95.3726 48.3356H112.983C114.858 48.3356 116.377 46.8133 116.377 44.9354V40.5756C116.377 38.6976 114.858 37.1753 112.983 37.1753Z" fill="#3B82F6"/>
<path d="M137.382 37.1753H119.772C117.897 37.1753 116.377 38.6976 116.377 40.5756V44.9354C116.377 46.8133 117.897 48.3356 119.772 48.3356H137.382C139.257 48.3356 140.776 46.8133 140.776 44.9354V40.5756C140.776 38.6976 139.257 37.1753 137.382 37.1753Z" fill="#3B82F6"/>
<path d="M161.781 37.1753H144.171C142.296 37.1753 140.776 38.6976 140.776 40.5756V44.9354C140.776 46.8133 142.296 48.3356 144.171 48.3356H161.781C163.656 48.3356 165.175 46.8133 165.175 44.9354V40.5756C165.175 38.6976 163.656 37.1753 161.781 37.1753Z" fill="#3B82F6"/>
<path d="M88.5839 47.6873H70.9735C69.0989 47.6873 67.5792 49.2096 67.5792 51.0875V55.4473C67.5792 57.3252 69.0989 58.8476 70.9735 58.8476H88.5839C90.4585 58.8476 91.9782 57.3252 91.9782 55.4473V51.0875C91.9782 49.2096 90.4585 47.6873 88.5839 47.6873Z" fill="#3B82F6"/>
<path d="M88.5839 79.2837H70.9735C69.0989 79.2837 67.5792 80.806 67.5792 82.6839V87.0438C67.5792 88.9217 69.0989 90.444 70.9735 90.444H88.5839C90.4585 90.444 91.9782 88.9217 91.9782 87.0438V82.6839C91.9782 80.806 90.4585 79.2837 88.5839 79.2837Z" fill="#3B82F6"/>
<path d="M137.382 47.6873H119.772C117.897 47.6873 116.377 49.2096 116.377 51.0875V55.4473C116.377 57.3252 117.897 58.8476 119.772 58.8476H137.382C139.257 58.8476 140.776 57.3252 140.776 55.4473V51.0875C140.776 49.2096 139.257 47.6873 137.382 47.6873Z" fill="#3B82F6"/>
<path d="M161.781 47.6873H144.171C142.296 47.6873 140.776 49.2096 140.776 51.0875V55.4473C140.776 57.3252 142.296 58.8476 144.171 58.8476H161.781C163.656 58.8476 165.175 57.3252 165.175 55.4473V51.0875C165.175 49.2096 163.656 47.6873 161.781 47.6873Z" fill="#3B82F6"/>
<path d="M186.177 47.6873H168.567C166.692 47.6873 165.172 49.2096 165.172 51.0875V55.4473C165.172 57.3252 166.692 58.8476 168.567 58.8476H186.177C188.052 58.8476 189.571 57.3252 189.571 55.4473V51.0875C189.571 49.2096 188.052 47.6873 186.177 47.6873Z" fill="#3B82F6"/>
<path d="M210.576 16.1223H192.966C191.091 16.1223 189.571 17.6447 189.571 19.5226V23.8824C189.571 25.7603 191.091 27.2826 192.966 27.2826H210.576C212.451 27.2826 213.971 25.7603 213.971 23.8824V19.5226C213.971 17.6447 212.451 16.1223 210.576 16.1223Z" fill="#3B82F6"/>
<path d="M212.026 37.1753H191.516C190.442 37.1753 189.571 38.0474 189.571 39.1232V46.3877C189.571 47.4635 190.442 48.3356 191.516 48.3356H212.026C213.1 48.3356 213.971 47.4635 213.971 46.3877V39.1232C213.971 38.0474 213.1 37.1753 212.026 37.1753Z" fill="#3B82F6"/>
<path d="M212.026 47.6873H191.516C190.442 47.6873 189.571 48.5594 189.571 49.6352V56.8996C189.571 57.9755 190.442 58.8476 191.516 58.8476H212.026C213.1 58.8476 213.971 57.9755 213.971 56.8996V49.6352C213.971 48.5594 213.1 47.6873 212.026 47.6873Z" fill="#3B82F6"/>
<path d="M113.052 58.231H95.3035C93.467 58.231 91.9782 59.7223 91.9782 61.5621V66.0602C91.9782 67.8999 93.467 69.3913 95.3035 69.3913H113.052C114.888 69.3913 116.377 67.8999 116.377 66.0602V61.5621C116.377 59.7223 114.888 58.231 113.052 58.231Z" fill="#3B82F6"/>
<path d="M137.451 58.231H119.703C117.866 58.231 116.377 59.7223 116.377 61.5621V66.0602C116.377 67.8999 117.866 69.3913 119.703 69.3913H137.451C139.287 69.3913 140.776 67.8999 140.776 66.0602V61.5621C140.776 59.7223 139.287 58.231 137.451 58.231Z" fill="#3B82F6"/>
<path d="M161.85 58.231H144.102C142.265 58.231 140.776 59.7223 140.776 61.5621V66.0602C140.776 67.8999 142.265 69.3913 144.102 69.3913H161.85C163.687 69.3913 165.175 67.8999 165.175 66.0602V61.5621C165.175 59.7223 163.687 58.231 161.85 58.231Z" fill="#3B82F6"/>
<path d="M186.246 58.231H168.498C166.661 58.231 165.172 59.7223 165.172 61.5621V66.0602C165.172 67.8999 166.661 69.3913 168.498 69.3913H186.246C188.083 69.3913 189.571 67.8999 189.571 66.0602V61.5621C189.571 59.7223 188.083 58.231 186.246 58.231Z" fill="#3B82F6"/>
<path d="M88.6529 68.74H70.9045C69.068 68.74 67.5792 70.2314 67.5792 72.0711V76.5692C67.5792 78.4089 69.068 79.9003 70.9045 79.9003H88.6529C90.4894 79.9003 91.9782 78.4089 91.9782 76.5692V72.0711C91.9782 70.2314 90.4894 68.74 88.6529 68.74Z" fill="#3B82F6"/>
<path d="M64.2539 68.74H46.5055C44.6689 68.74 43.1801 70.2314 43.1801 72.0711V76.5692C43.1801 78.4089 44.6689 79.9003 46.5055 79.9003H64.2539C66.0904 79.9003 67.5792 78.4089 67.5792 76.5692V72.0711C67.5792 70.2314 66.0904 68.74 64.2539 68.74Z" fill="#3B82F6"/>
<path d="M58.1814 0H40.433C38.5965 0 37.1077 1.49138 37.1077 3.3311V7.82924C37.1077 9.66895 38.5965 11.1603 40.433 11.1603H58.1814C60.018 11.1603 61.5068 9.66895 61.5068 7.82924V3.3311C61.5068 1.49138 60.018 0 58.1814 0Z" fill="#3B82F6"/>
<path d="M43.2233 11.1604H25.4749C23.6384 11.1604 22.1496 12.6518 22.1496 14.4915V18.9896C22.1496 20.8294 23.6384 22.3207 25.4749 22.3207H43.2233C45.0598 22.3207 46.5486 20.8294 46.5486 18.9896V14.4915C46.5486 12.6518 45.0598 11.1604 43.2233 11.1604Z" fill="#3B82F6"/>
<path d="M21.0737 52.0095H3.32531C1.48879 52.0095 0 53.5009 0 55.3406V59.8388C0 61.6785 1.48879 63.1699 3.32531 63.1699H21.0737C22.9102 63.1699 24.399 61.6785 24.399 59.8388V55.3406C24.399 53.5009 22.9102 52.0095 21.0737 52.0095Z" fill="#3B82F6"/>
<path d="M33.2732 63.1584H15.5248C13.6883 63.1584 12.1995 64.6498 12.1995 66.4896V70.9877C12.1995 72.8274 13.6883 74.3188 15.5248 74.3188H33.2732C35.1098 74.3188 36.5986 72.8274 36.5986 70.9877V66.4896C36.5986 64.6498 35.1098 63.1584 33.2732 63.1584Z" fill="#3B82F6"/>
<path d="M113.052 68.74H95.3035C93.467 68.74 91.9782 70.2314 91.9782 72.0711V76.5692C91.9782 78.4089 93.467 79.9003 95.3035 79.9003H113.052C114.888 79.9003 116.377 78.4089 116.377 76.5692V72.0711C116.377 70.2314 114.888 68.74 113.052 68.74Z" fill="#3B82F6"/>
<path d="M137.451 68.74H119.703C117.866 68.74 116.377 70.2314 116.377 72.0711V76.5692C116.377 78.4089 117.866 79.9003 119.703 79.9003H137.451C139.287 79.9003 140.776 78.4089 140.776 76.5692V72.0711C140.776 70.2314 139.287 68.74 137.451 68.74Z" fill="#3B82F6"/>
<path d="M161.85 68.74H144.102C142.265 68.74 140.776 70.2314 140.776 72.0711V76.5692C140.776 78.4089 142.265 79.9003 144.102 79.9003H161.85C163.687 79.9003 165.175 78.4089 165.175 76.5692V72.0711C165.175 70.2314 163.687 68.74 161.85 68.74Z" fill="#3B82F6"/>
<path d="M186.246 68.74H168.498C166.661 68.74 165.172 70.2314 165.172 72.0711V76.5692C165.172 78.4089 166.661 79.9003 168.498 79.9003H186.246C188.083 79.9003 189.571 78.4089 189.571 76.5692V72.0711C189.571 70.2314 188.083 68.74 186.246 68.74Z" fill="#3B82F6"/>
<path d="M137.555 79.2837H119.599C117.82 79.2837 116.377 80.7286 116.377 82.511V87.2167C116.377 88.9991 117.82 90.444 119.599 90.444H137.555C139.334 90.444 140.776 88.9991 140.776 87.2167V82.511C140.776 80.7286 139.334 79.2837 137.555 79.2837Z" fill="#3B82F6"/>
<path d="M161.954 79.2837H143.998C142.219 79.2837 140.776 80.7286 140.776 82.511V87.2167C140.776 88.9991 142.219 90.444 143.998 90.444H161.954C163.733 90.444 165.175 88.9991 165.175 87.2167V82.511C165.175 80.7286 163.733 79.2837 161.954 79.2837Z" fill="#3B82F6"/>
<path d="M88.7565 89.7927H70.8009C69.0216 89.7927 67.5792 91.2377 67.5792 93.0201V97.7257C67.5792 99.5081 69.0216 100.953 70.8009 100.953H88.7565C90.5358 100.953 91.9782 99.5081 91.9782 97.7257V93.0201C91.9782 91.2377 90.5358 89.7927 88.7565 89.7927Z" fill="#3B82F6"/>
<path d="M113.156 89.7927H95.2C93.4207 89.7927 91.9782 91.2377 91.9782 93.0201V97.7257C91.9782 99.5081 93.4207 100.953 95.2 100.953H113.156C114.935 100.953 116.377 99.5081 116.377 97.7257V93.0201C116.377 91.2377 114.935 89.7927 113.156 89.7927Z" fill="#3B82F6"/>
<path d="M113.156 100.319H95.2C93.4207 100.319 91.9782 101.764 91.9782 103.546V108.252C91.9782 110.034 93.4207 111.479 95.2 111.479H113.156C114.935 111.479 116.377 110.034 116.377 108.252V103.546C116.377 101.764 114.935 100.319 113.156 100.319Z" fill="#3B82F6"/>
<path d="M137.555 89.7927H119.599C117.82 89.7927 116.377 91.2377 116.377 93.0201V97.7257C116.377 99.5081 117.82 100.953 119.599 100.953H137.555C139.334 100.953 140.776 99.5081 140.776 97.7257V93.0201C140.776 91.2377 139.334 89.7927 137.555 89.7927Z" fill="#3B82F6"/>
<path d="M161.954 89.7927H143.998C142.219 89.7927 140.776 91.2377 140.776 93.0201V97.7257C140.776 99.5081 142.219 100.953 143.998 100.953H161.954C163.733 100.953 165.175 99.5081 165.175 97.7257V93.0201C165.175 91.2377 163.733 89.7927 161.954 89.7927Z" fill="#3B82F6"/>
<path d="M186.35 89.7927H168.394C166.615 89.7927 165.172 91.2377 165.172 93.0201V97.7257C165.172 99.5081 166.615 100.953 168.394 100.953H186.35C188.129 100.953 189.571 99.5081 189.571 97.7257V93.0201C189.571 91.2377 188.129 89.7927 186.35 89.7927Z" fill="#3B82F6"/>
<path d="M137.555 100.336H119.599C117.82 100.336 116.377 101.781 116.377 103.564V108.269C116.377 110.052 117.82 111.497 119.599 111.497H137.555C139.334 111.497 140.776 110.052 140.776 108.269V103.564C140.776 101.781 139.334 100.336 137.555 100.336Z" fill="#3B82F6"/>
<path d="M161.954 100.336H143.998C142.219 100.336 140.776 101.781 140.776 103.564V108.269C140.776 110.052 142.219 111.497 143.998 111.497H161.954C163.733 111.497 165.175 110.052 165.175 108.269V103.564C165.175 101.781 163.733 100.336 161.954 100.336Z" fill="#3B82F6"/>
<path d="M88.7565 110.845H70.8009C69.0216 110.845 67.5792 112.29 67.5792 114.073V118.778C67.5792 120.561 69.0216 122.006 70.8009 122.006H88.7565C90.5358 122.006 91.9782 120.561 91.9782 118.778V114.073C91.9782 112.29 90.5358 110.845 88.7565 110.845Z" fill="#3B82F6"/>
<path d="M113.156 110.845H95.2C93.4207 110.845 91.9782 112.29 91.9782 114.073V118.778C91.9782 120.561 93.4207 122.006 95.2 122.006H113.156C114.935 122.006 116.377 120.561 116.377 118.778V114.073C116.377 112.29 114.935 110.845 113.156 110.845Z" fill="#3B82F6"/>
<path d="M137.555 110.845H119.599C117.82 110.845 116.377 112.29 116.377 114.073V118.778C116.377 120.561 117.82 122.006 119.599 122.006H137.555C139.334 122.006 140.776 120.561 140.776 118.778V114.073C140.776 112.29 139.334 110.845 137.555 110.845Z" fill="#3B82F6"/>
<path d="M161.954 110.845H143.998C142.219 110.845 140.776 112.29 140.776 114.073V118.778C140.776 120.561 142.219 122.006 143.998 122.006H161.954C163.733 122.006 165.175 120.561 165.175 118.778V114.073C165.175 112.29 163.733 110.845 161.954 110.845Z" fill="#3B82F6"/>
<path d="M186.35 110.845H168.394C166.615 110.845 165.172 112.29 165.172 114.073V118.778C165.172 120.561 166.615 122.006 168.394 122.006H186.35C188.129 122.006 189.571 120.561 189.571 118.778V114.073C189.571 112.29 188.129 110.845 186.35 110.845Z" fill="#3B82F6"/>
<path d="M212.026 110.845H191.516C190.442 110.845 189.571 111.718 189.571 112.793V120.058C189.571 121.134 190.442 122.006 191.516 122.006H212.026C213.1 122.006 213.971 121.134 213.971 120.058V112.793C213.971 111.718 213.1 110.845 212.026 110.845Z" fill="#3B82F6"/>
<path d="M114.033 121.389H94.3226C93.0278 121.389 91.9782 122.441 91.9782 123.738V130.201C91.9782 131.498 93.0278 132.549 94.3226 132.549H114.033C115.328 132.549 116.377 131.498 116.377 130.201V123.738C116.377 122.441 115.328 121.389 114.033 121.389Z" fill="#3B82F6"/>
<path d="M138.432 121.389H118.722C117.427 121.389 116.377 122.441 116.377 123.738V130.201C116.377 131.498 117.427 132.549 118.722 132.549H138.432C139.727 132.549 140.776 131.498 140.776 130.201V123.738C140.776 122.441 139.727 121.389 138.432 121.389Z" fill="#3B82F6"/>
<path d="M162.831 121.389H143.121C141.826 121.389 140.776 122.441 140.776 123.738V130.201C140.776 131.498 141.826 132.549 143.121 132.549H162.831C164.126 132.549 165.175 131.498 165.175 130.201V123.738C165.175 122.441 164.126 121.389 162.831 121.389Z" fill="#3B82F6"/>
<path d="M187.227 121.389H167.517C166.222 121.389 165.172 122.441 165.172 123.738V130.201C165.172 131.498 166.222 132.549 167.517 132.549H187.227C188.522 132.549 189.571 131.498 189.571 130.201V123.738C189.571 122.441 188.522 121.389 187.227 121.389Z" fill="#3B82F6"/>
<path d="M114.033 131.898H94.3226C93.0278 131.898 91.9782 132.95 91.9782 134.247V140.71C91.9782 142.007 93.0278 143.059 94.3226 143.059H114.033C115.328 143.059 116.377 142.007 116.377 140.71V134.247C116.377 132.95 115.328 131.898 114.033 131.898Z" fill="#3B82F6"/>
<path d="M138.432 131.898H118.722C117.427 131.898 116.377 132.95 116.377 134.247V140.71C116.377 142.007 117.427 143.059 118.722 143.059H138.432C139.727 143.059 140.776 142.007 140.776 140.71V134.247C140.776 132.95 139.727 131.898 138.432 131.898Z" fill="#3B82F6"/>
<path d="M162.831 131.898H143.121C141.826 131.898 140.776 132.95 140.776 134.247V140.71C140.776 142.007 141.826 143.059 143.121 143.059H162.831C164.126 143.059 165.175 142.007 165.175 140.71V134.247C165.175 132.95 164.126 131.898 162.831 131.898Z" fill="#3B82F6"/>
<path d="M187.227 131.898H167.517C166.222 131.898 165.172 132.95 165.172 134.247V140.71C165.172 142.007 166.222 143.059 167.517 143.059H187.227C188.522 143.059 189.571 142.007 189.571 140.71V134.247C189.571 132.95 188.522 131.898 187.227 131.898Z" fill="#3B82F6"/>
<path d="M89.6338 142.442H69.9236C68.6288 142.442 67.5792 143.493 67.5792 144.79V151.254C67.5792 152.551 68.6288 153.602 69.9236 153.602H89.6338C90.9286 153.602 91.9782 152.551 91.9782 151.254V144.79C91.9782 143.493 90.9286 142.442 89.6338 142.442Z" fill="#3B82F6"/>
<path d="M114.033 142.442H94.3226C93.0278 142.442 91.9782 143.493 91.9782 144.79V151.254C91.9782 152.551 93.0278 153.602 94.3226 153.602H114.033C115.328 153.602 116.377 152.551 116.377 151.254V144.79C116.377 143.493 115.328 142.442 114.033 142.442Z" fill="#3B82F6"/>
<path d="M138.432 142.442H118.722C117.427 142.442 116.377 143.493 116.377 144.79V151.254C116.377 152.551 117.427 153.602 118.722 153.602H138.432C139.727 153.602 140.776 152.551 140.776 151.254V144.79C140.776 143.493 139.727 142.442 138.432 142.442Z" fill="#3B82F6"/>
<path d="M162.831 142.442H143.121C141.826 142.442 140.776 143.493 140.776 144.79V151.254C140.776 152.551 141.826 153.602 143.121 153.602H162.831C164.126 153.602 165.175 152.551 165.175 151.254V144.79C165.175 143.493 164.126 142.442 162.831 142.442Z" fill="#3B82F6"/>
<path d="M187.227 142.442H167.517C166.222 142.442 165.172 143.493 165.172 144.79V151.254C165.172 152.551 166.222 153.602 167.517 153.602H187.227C188.522 153.602 189.571 152.551 189.571 151.254V144.79C189.571 143.493 188.522 142.442 187.227 142.442Z" fill="#3B82F6"/>
<path d="M89.6338 152.951H69.9236C68.6288 152.951 67.5792 154.002 67.5792 155.299V161.763C67.5792 163.06 68.6288 164.111 69.9236 164.111H89.6338C90.9286 164.111 91.9782 163.06 91.9782 161.763V155.299C91.9782 154.002 90.9286 152.951 89.6338 152.951Z" fill="#3B82F6"/>
<path d="M114.433 152.951H93.9228C92.8488 152.951 91.9782 153.823 91.9782 154.899V162.163C91.9782 163.239 92.8488 164.111 93.9228 164.111H114.433C115.507 164.111 116.377 163.239 116.377 162.163V154.899C116.377 153.823 115.507 152.951 114.433 152.951Z" fill="#3B82F6"/>
<path d="M138.432 152.951H118.722C117.427 152.951 116.377 154.002 116.377 155.299V161.763C116.377 163.06 117.427 164.111 118.722 164.111H138.432C139.727 164.111 140.776 163.06 140.776 161.763V155.299C140.776 154.002 139.727 152.951 138.432 152.951Z" fill="#3B82F6"/>
<path d="M162.831 152.951H143.121C141.826 152.951 140.776 154.002 140.776 155.299V161.763C140.776 163.06 141.826 164.111 143.121 164.111H162.831C164.126 164.111 165.175 163.06 165.175 161.763V155.299C165.175 154.002 164.126 152.951 162.831 152.951Z" fill="#3B82F6"/>
<path d="M187.676 152.951H167.068C166.021 152.951 165.172 153.801 165.172 154.85V162.212C165.172 163.261 166.021 164.111 167.068 164.111H187.676C188.723 164.111 189.571 163.261 189.571 162.212V154.85C189.571 153.801 188.723 152.951 187.676 152.951Z" fill="#3B82F6"/>
<path d="M89.6338 163.495H69.9236C68.6288 163.495 67.5792 164.546 67.5792 165.843V172.306C67.5792 173.604 68.6288 174.655 69.9236 174.655H89.6338C90.9286 174.655 91.9782 173.604 91.9782 172.306V165.843C91.9782 164.546 90.9286 163.495 89.6338 163.495Z" fill="#3B82F6"/>
<path d="M114.033 163.495H94.3226C93.0278 163.495 91.9782 164.546 91.9782 165.843V172.306C91.9782 173.604 93.0278 174.655 94.3226 174.655H114.033C115.328 174.655 116.377 173.604 116.377 172.306V165.843C116.377 164.546 115.328 163.495 114.033 163.495Z" fill="#3B82F6"/>
<path d="M138.432 163.495H118.722C117.427 163.495 116.377 164.546 116.377 165.843V172.306C116.377 173.604 117.427 174.655 118.722 174.655H138.432C139.727 174.655 140.776 173.604 140.776 172.306V165.843C140.776 164.546 139.727 163.495 138.432 163.495Z" fill="#3B82F6"/>
<path d="M163.28 163.495H142.672C141.625 163.495 140.776 164.345 140.776 165.394V172.756C140.776 173.805 141.625 174.655 142.672 174.655H163.28C164.327 174.655 165.175 173.805 165.175 172.756V165.394C165.175 164.345 164.327 163.495 163.28 163.495Z" fill="#3B82F6"/>
<path d="M187.676 163.495H167.068C166.021 163.495 165.172 164.345 165.172 165.394V172.756C165.172 173.805 166.021 174.655 167.068 174.655H187.676C188.723 174.655 189.571 173.805 189.571 172.756V165.394C189.571 164.345 188.723 163.495 187.676 163.495Z" fill="#3B82F6"/>
<path d="M211.626 142.442H191.916C190.621 142.442 189.571 143.493 189.571 144.79V151.254C189.571 152.551 190.621 153.602 191.916 153.602H211.626C212.921 153.602 213.971 152.551 213.971 151.254V144.79C213.971 143.493 212.921 142.442 211.626 142.442Z" fill="#3B82F6"/>
<path d="M212.075 163.495H191.467C190.42 163.495 189.571 164.345 189.571 165.394V172.756C189.571 173.805 190.42 174.655 191.467 174.655H212.075C213.122 174.655 213.971 173.805 213.971 172.756V165.394C213.971 164.345 213.122 163.495 212.075 163.495Z" fill="#3B82F6"/>
</g>
<path opacity="0.1" d="M176.368 163.751C176.297 163.696 176.223 163.645 176.147 163.598C176.147 163.598 175.859 160.302 174.067 158.265C172.275 156.227 171.938 150.602 171.938 150.602C171.716 150.566 171.49 150.548 171.265 150.548C171.184 150.372 171.058 150.098 170.92 149.775C170.632 149.064 170.27 148.139 170.241 147.643C170.195 146.779 168.112 142.067 168.112 142.067C168.112 142.067 165.935 131.062 161.962 127.57C161.962 127.57 160.366 125.337 160.366 124.127C160.366 122.916 158.528 122.38 158.528 122.38C158.528 122.38 157.314 118.842 157.414 117.871C157.515 116.9 154.751 113.649 154.751 113.649C154.751 113.649 154.385 110.353 153.675 109.531C152.964 108.71 153.099 106.468 153.099 106.468C153.099 106.468 151.02 104.535 151.212 103.273C151.405 102.01 150.583 99.9242 150.583 99.9242C150.583 99.9242 152.021 97.3798 152.193 95.3137C152.218 95.0549 152.218 94.7944 152.193 94.5357C152.513 94.489 152.821 94.3803 153.099 94.2158C154.552 92.9998 152.763 81.6983 152.763 81.6983C152.763 81.6983 150.775 75.3588 151.794 70.5956C152.812 65.8323 148.451 43.7825 148.451 43.7825C148.451 43.7825 147.749 41.2583 146.993 39.7915C146.944 39.6993 146.895 39.6129 146.846 39.5293C147.395 39.1259 147.579 38.2009 147.579 38.2009C147.579 38.2009 149.665 35.2934 148.442 34.4549C147.332 33.6999 145.508 33.3916 145.028 32.3052C145 32.2367 144.977 32.1665 144.959 32.0949C146.144 32.3513 147.148 32.5818 147.447 32.6942C148.31 33.017 150.482 33.406 150.772 31.2534C151.063 29.1009 146.771 23.7873 146.383 23.5913C145.994 23.3954 145.35 21.7817 145.35 21.7817C145.802 20.9403 144.576 19.9721 144.576 19.9721L143.943 20.3092C143.857 18.756 143.673 16.9983 143.673 16.9983C143.673 16.9983 143.187 15.8975 142.315 12.1486C141.444 8.39967 139.606 10.1315 138.961 10.045C138.317 9.9586 134.733 10.532 133.378 10.8548C132.023 11.1775 126.051 15.5431 125.611 15.6382C125.171 15.7333 123.546 18.7416 123.35 19.3842C123.281 19.6148 123.638 19.8827 124.104 20.1306C124.035 20.2228 123.969 20.315 123.902 20.4187C122.729 22.1729 122.263 24.307 122.596 26.3918C122.93 28.4766 124.039 30.3577 125.7 31.6569C125.597 31.9047 125.493 32.1554 125.413 32.4118C125.358 32.5732 125.314 32.7378 125.28 32.9046C124.746 33.1605 124.273 33.5291 123.894 33.9852C123.515 34.4413 123.239 34.9741 123.085 35.547C122.677 37.0656 122.277 39.0711 122.766 39.7858C123.233 40.4491 123.438 41.2622 123.341 42.068C123.385 42.261 126.578 44.9784 126.578 46.4826C126.578 47.9867 128.709 46.2376 129.097 45.9062C129.175 45.8371 129.555 45.5518 130.119 45.1455L129.883 45.7045C129.077 47.5833 127.915 50.1854 127.547 50.462C126.972 50.9 123.479 63.1697 123.577 64.6221C123.675 66.0744 123.29 74.0333 123.29 74.0333C123.29 74.0333 122.079 85.3751 121.161 86.8361C121.161 86.8361 120.528 92.216 119.947 92.3601C119.366 92.5042 119.127 93.6712 122.179 94.2072C123.209 94.3858 124.668 94.5818 126.146 94.7633L125.735 95.4866L120.58 104.535L116.265 114.862C116.265 114.862 115.491 117.485 114.717 117.485C113.944 117.485 113.412 120.052 113.412 120.052C113.412 120.052 112.005 122.813 112.494 123.495C112.983 124.178 113.412 125.968 112.782 126.213C112.152 126.458 111.723 132.84 111.723 132.84L108.271 145.208C108.271 145.208 107.302 146.073 107.497 147.098C107.693 148.124 106.528 148.211 106.528 148.211C106.263 148.664 106.052 149.148 105.901 149.652C105.886 149.706 105.881 149.758 105.872 149.807C105.597 149.93 105.368 150.138 105.219 150.401C104.068 152.392 102.314 156.51 101.301 156.997C100.289 157.484 98.1542 157.916 96.5059 157.772C94.8577 157.628 92.8268 158.314 91.9581 157.798C91.0142 157.331 89.994 157.038 88.9463 156.933C87.928 156.873 87.2405 157.221 88.0344 158.587C89.6827 161.394 94.3284 164.693 95.3927 164.987C96.457 165.281 105.656 169.062 106.626 169.497C107.595 169.932 110.06 170.361 110.161 169.497C110.262 168.632 109.916 166.682 109.916 166.682C109.918 166.673 109.918 166.664 109.916 166.656C110.092 166.307 111.835 162.754 111.7 161.783C111.55 160.766 115.96 155.288 114.991 153.686C114.991 153.686 115.051 153.377 115.126 152.96C115.253 152.319 115.338 151.672 115.379 151.02C115.379 150.291 118.716 144.62 118.716 144.62C118.716 144.62 122.588 136.177 122.743 133.757C122.898 131.336 123.951 130.941 123.951 130.941C123.951 130.941 124.144 130.746 124.435 129.633C124.725 128.521 124.483 126.579 124.483 126.579C124.483 126.579 126.126 125.426 126.178 124.686C126.229 123.945 137.109 109.897 137.109 109.897C137.109 109.897 137.836 110.041 138.173 111.304C138.51 112.566 147.856 129.685 147.856 129.685C147.856 129.685 152.067 130.895 152.36 133.656L154.103 136.713L157.486 142.765C157.486 142.765 158.556 145.969 159.911 146.986C159.911 146.986 160.774 148.732 160.443 149.554C160.113 150.375 161.746 151.012 161.746 151.012C161.746 151.012 162.014 152.317 162.138 153.193C162.179 153.424 162.202 153.658 162.207 153.893C161.977 154.149 161.822 154.464 161.758 154.802C161.695 155.141 161.726 155.49 161.847 155.812C162.817 159.06 163.979 161.048 162.998 162.152C162.017 163.255 159.514 166.37 159.514 166.37C159.514 166.37 155.775 167.488 154.958 167.811C154.451 168.022 154.181 168.753 154.549 169.465C154.881 170.021 155.409 170.432 156.028 170.618C158.108 171.396 167.692 171.053 167.692 171.053C167.692 171.053 176.897 167.612 177.277 166.01C177.605 164.849 176.785 164.054 176.368 163.751Z" fill="black"/>
<path d="M207.225 35.5703C207.227 35.8012 207.217 36.0321 207.193 36.2618C207.004 38.4261 205.975 40.4298 204.328 41.8432C202.681 43.2565 200.547 43.9671 198.383 43.8224C196.219 43.6777 194.197 42.6893 192.753 41.0692C191.308 39.449 190.554 37.3262 190.653 35.1559C190.753 32.9856 191.697 30.9407 193.284 29.4598C194.871 27.9789 196.974 27.1798 199.142 27.234C201.31 27.2882 203.37 28.1914 204.881 29.7498C206.393 31.3082 207.234 33.3977 207.225 35.5703Z" fill="#FDC2CC"/>
<path d="M193.072 31.3572C193.026 31.7347 193.138 32.1151 193.107 32.4926C193.064 32.9853 192.782 33.4147 192.569 33.8584C192.356 34.3022 192.201 34.8382 192.419 35.279C192.603 35.6536 192.995 35.8553 193.282 36.1867C193.714 36.7083 193.74 37.4719 193.544 38.1203C193.406 38.5842 193.173 39.1029 193.417 39.5207C193.63 39.8809 194.139 40.0135 194.28 40.4054C194.345 40.658 194.318 40.9252 194.206 41.1603C193.987 41.7511 193.696 42.313 193.504 42.9123C193.28 43.5048 193.246 44.1524 193.406 44.7652C193.425 44.843 193.463 44.9146 193.518 44.9726C193.603 45.0313 193.703 45.0634 193.806 45.0649L194.6 45.1484C194.913 45.183 195.302 45.1801 195.463 44.9035C195.537 44.7709 195.543 44.5894 195.673 44.5116C195.802 44.4338 196.035 44.5692 196.173 44.7075C196.966 45.508 198.007 46.0159 199.125 46.1483C199.419 46.2102 199.725 46.1631 199.988 46.0158C200.226 45.8486 200.344 45.549 200.563 45.3789C201.092 44.9871 201.877 45.4279 202.49 45.1859C203.034 44.9698 203.238 44.3041 203.261 43.7163C203.284 43.1284 203.206 42.5147 203.46 41.9873C203.678 41.6371 203.926 41.3055 204.199 40.9961C204.637 40.3131 204.806 39.4916 204.673 38.6908C204.543 37.9008 204.3 37.1334 203.954 36.4115C203.405 35.1436 202.769 33.8671 201.745 32.9536C201.516 32.7718 201.307 32.565 201.124 32.3369C200.658 31.6799 200.781 30.7175 200.261 30.1037C199.844 29.6081 199.133 29.49 198.486 29.5015C197.591 29.5154 196.709 29.7177 195.897 30.0951C195.652 30.2241 195.391 30.3209 195.12 30.3832C194.617 30.4726 194.367 30.0403 193.881 30.2565C193.663 30.3557 193.475 30.509 193.334 30.7016C193.192 30.8943 193.102 31.1199 193.072 31.3572Z" fill="#464A5F"/>
<g opacity="0.1">
<path d="M195.517 30.4091C195.789 30.3486 196.051 30.2517 196.297 30.121C197.079 29.7626 197.925 29.5666 198.785 29.5447C198.684 29.5447 198.584 29.5447 198.497 29.5447C197.603 29.5586 196.72 29.7609 195.909 30.1383C195.677 30.2612 195.433 30.3578 195.181 30.4264C195.293 30.4442 195.408 30.4383 195.517 30.4091Z" fill="black"/>
<path d="M194.988 45.1483L194.191 45.0647C194.088 45.0638 193.988 45.0317 193.904 44.9725C193.848 44.9163 193.809 44.8454 193.791 44.7679C193.631 44.1543 193.665 43.5062 193.886 42.9122C194.082 42.3128 194.372 41.7596 194.588 41.1602C194.702 40.9255 194.729 40.6578 194.663 40.4052C194.516 40.0133 194.007 39.8808 193.8 39.5206C193.553 39.1056 193.8 38.5841 193.927 38.1201C194.122 37.4718 194.096 36.7082 193.665 36.1866C193.397 35.8639 192.995 35.6535 192.802 35.2789C192.583 34.838 192.736 34.3021 192.949 33.8612C193.161 33.4203 193.446 32.9967 193.489 32.4924C193.521 32.1149 193.409 31.7346 193.455 31.3571C193.489 31.1233 193.582 30.902 193.725 30.714C193.868 30.526 194.056 30.3774 194.272 30.2823C194.303 30.2704 194.334 30.2608 194.367 30.2534C194.209 30.2017 194.037 30.212 193.886 30.2823C193.67 30.3777 193.482 30.5263 193.339 30.7142C193.195 30.9021 193.102 31.1232 193.067 31.3571C193.02 31.7346 193.133 32.1149 193.101 32.4924C193.058 32.9852 192.776 33.4174 192.563 33.8612C192.35 34.3049 192.195 34.838 192.414 35.2789C192.598 35.6535 192.989 35.8552 193.277 36.1866C193.708 36.7082 193.734 37.4718 193.538 38.1201C193.4 38.5841 193.167 39.1056 193.412 39.5206C193.625 39.8808 194.134 40.0133 194.275 40.4052C194.339 40.6579 194.312 40.9251 194.2 41.1602C193.981 41.7509 193.691 42.3128 193.498 42.9122C193.274 43.5056 193.24 44.1542 193.4 44.7679C193.419 44.8449 193.458 44.9155 193.512 44.9725C193.597 45.0312 193.697 45.0633 193.8 45.0647L194.594 45.1483C194.733 45.1642 194.872 45.1642 195.011 45.1483H194.988Z" fill="black"/>
<path d="M199.51 46.1598C198.393 46.0252 197.353 45.5177 196.559 44.719C196.423 44.5807 196.225 44.4308 196.058 44.5231C196.037 44.5366 196.02 44.5542 196.006 44.5749C196.066 44.6184 196.122 44.6666 196.173 44.719C196.967 45.5182 198.007 46.0258 199.125 46.1598C199.28 46.1785 199.438 46.1785 199.593 46.1598H199.51Z" fill="black"/>
<path d="M201.388 45.229C201.653 45.2609 201.919 45.2715 202.185 45.2606C201.921 45.2246 201.654 45.214 201.388 45.229Z" fill="black"/>
</g>
<path d="M239.451 161.247C238.919 164.111 230.157 164.596 230.289 164.5C230.322 164.24 230.306 163.976 230.24 163.722C230.117 162.858 229.849 161.544 229.849 161.544C229.849 161.544 228.21 160.91 228.546 160.083C228.883 159.256 228.014 157.515 228.014 157.515C226.659 156.498 225.592 153.294 225.592 153.294L222.206 147.243L220.463 144.185C220.175 141.425 215.958 140.215 215.958 140.215C215.958 140.215 206.615 123.095 206.276 121.833C205.936 120.571 205.211 120.43 205.211 120.43C205.211 120.43 194.332 134.48 194.283 135.224C194.234 135.967 192.589 137.117 192.589 137.117C192.589 137.117 192.831 139.056 192.54 140.168C192.25 141.281 192.057 141.477 192.057 141.477C192.057 141.477 190.99 141.866 190.849 144.292C190.708 146.718 186.821 155.155 186.821 155.155C186.821 155.155 183.485 160.826 183.485 161.558C183.443 162.21 183.359 162.858 183.232 163.498C183.16 163.913 183.096 164.224 183.096 164.224C183.096 164.224 174.772 161.103 174.144 160.87C173.929 160.786 173.917 160.504 174.001 160.169C174.152 159.666 174.363 159.182 174.628 158.729C174.628 158.729 175.778 158.636 175.597 157.616C175.416 156.596 176.371 155.726 176.371 155.726L179.823 143.358C179.823 143.358 180.254 136.958 180.884 136.716C181.514 136.474 181.077 134.676 180.597 134.002C180.116 133.328 181.514 130.544 181.514 130.544C181.514 130.544 182.044 127.976 182.82 127.976C183.597 127.976 184.368 125.354 184.368 125.354L188.683 115.027L193.837 105.979L194.928 104.068C194.928 104.068 216.617 102.126 219.278 103.388C220.172 103.812 220.4 104.745 220.308 105.797C220.123 107.872 218.697 110.408 218.697 110.408C218.697 110.408 219.519 112.497 219.327 113.756C219.134 115.015 221.214 116.954 221.214 116.954C221.214 116.954 221.07 119.188 221.789 120.015C222.508 120.842 222.865 124.135 222.865 124.135C222.865 124.135 225.623 127.386 225.529 128.357C225.434 129.328 226.642 132.864 226.642 132.864C226.642 132.864 228.48 133.4 228.48 134.61C228.48 135.82 230.076 138.068 230.076 138.068C234.029 141.563 236.206 152.571 236.206 152.571C236.206 152.571 238.289 157.276 238.335 158.144C238.364 158.642 238.715 159.564 239.014 160.279C239.25 160.826 239.451 161.247 239.451 161.247Z" fill="#5F5D7E"/>
<path opacity="0.1" d="M207.225 35.5701C207.227 35.801 207.217 36.0319 207.193 36.2617C206.215 36.7688 205.243 37.2616 204.435 37.6708C203.284 38.2471 202.482 38.639 202.482 38.639C202.482 38.639 198.253 36.0456 197.479 34.8555C196.705 33.6654 194.315 31.85 194.315 31.85C194.315 31.85 193.717 31.6684 193.067 31.4091C192.698 31.2673 192.339 31.0998 191.994 30.9077C192.994 29.4301 194.441 28.3124 196.121 27.7182C197.802 27.1241 199.628 27.0848 201.333 27.6061C203.038 28.1274 204.531 29.1819 205.594 30.615C206.657 32.0482 207.233 33.7847 207.239 35.5701H207.225Z" fill="black"/>
<path d="M194.315 31.4639C194.315 31.4639 191.249 30.5245 191.438 29.8791C191.628 29.2336 193.245 26.2252 193.696 26.133C194.148 26.0408 200.12 21.6695 201.463 21.3467C202.807 21.024 206.399 20.4419 207.047 20.5399C207.694 20.6379 209.532 18.8916 210.404 22.6406C211.275 26.3895 211.758 27.4902 211.758 27.4902C211.758 27.4902 212.273 32.3716 211.983 33.0517C211.692 33.7317 202.464 38.2558 202.464 38.2558C202.464 38.2558 198.236 35.6624 197.462 34.4723C196.688 33.2822 194.315 31.4639 194.315 31.4639Z" fill="#65617D"/>
<path opacity="0.1" d="M220.293 105.806C216.111 106.696 200.085 106.696 200.085 106.696C200.085 106.696 196.829 106.37 193.817 105.99L194.908 104.08C194.908 104.08 216.597 102.137 219.258 103.399C220.158 103.814 220.385 104.754 220.293 105.806Z" fill="black"/>
<path d="M221.199 104.708C219.761 105.918 200.091 105.918 200.091 105.918C200.091 105.918 193.314 105.238 190.268 104.708C187.221 104.178 187.454 103.008 188.035 102.861C188.616 102.714 189.249 97.3368 189.249 97.3368C190.167 95.8787 191.378 84.534 191.378 84.534C191.378 84.534 191.766 76.5808 191.666 75.1227C191.565 73.6647 195.054 61.4007 195.635 60.9627C196.004 60.6745 197.166 58.0811 197.971 56.2052C198.434 55.116 198.785 54.2745 198.785 54.2745C201.25 49.8139 213.401 48.7419 214.368 49.324C214.683 49.5812 214.931 49.9116 215.09 50.2864C215.849 51.7532 216.548 54.2745 216.548 54.2745C216.548 54.2745 220.906 76.3359 219.891 81.0905C218.875 85.8451 220.86 92.1932 220.86 92.1932C220.86 92.1932 222.652 103.495 221.199 104.708Z" fill="#3B82F6"/>
<path d="M207.599 100.875H203.241V102.815H207.599V100.875Z" fill="#5F5D7E"/>
<path opacity="0.1" d="M196.608 104.512C196.608 104.512 194.378 108.546 193.604 108.681C192.831 108.817 191.717 114.937 196.17 117.038C200.623 119.139 200.773 110.782 200.773 110.782L202.545 103.751L197.721 101.956L196.608 104.512Z" fill="black"/>
<path d="M196.219 104.123C196.219 104.123 193.993 108.157 193.219 108.295C192.445 108.434 191.329 114.551 195.785 116.635C200.241 118.718 200.387 110.379 200.387 110.379L202.156 103.348L197.335 101.552L196.219 104.123Z" fill="#464A5F"/>
<path opacity="0.1" d="M214.954 122.017C214.954 122.017 218.441 125.763 220.328 124.104C222.215 122.444 214.954 122.017 214.954 122.017Z" fill="black"/>
<path opacity="0.1" d="M220.426 127.838C220.426 127.838 223.279 131.426 223.328 129.486C223.377 127.547 220.426 127.838 220.426 127.838Z" fill="black"/>
<path opacity="0.1" d="M223.328 136.376C223.328 136.376 225.362 136.52 226.09 135.454L223.328 136.376Z" fill="black"/>
<path opacity="0.1" d="M225.362 139.572C225.362 139.572 226.717 140.301 227.637 139.186L225.362 139.572Z" fill="black"/>
<path opacity="0.1" d="M200.77 113.531C200.77 113.531 201.633 118.479 205.223 120.418L200.77 113.531Z" fill="black"/>
<path opacity="0.1" d="M186.344 140.698C186.344 140.698 185.907 141.961 188.329 142.301C190.751 142.641 186.344 140.698 186.344 140.698Z" fill="black"/>
<path opacity="0.1" d="M187.457 136.376C187.457 136.376 189.054 139.376 189.684 139.183L187.457 136.376Z" fill="black"/>
<path opacity="0.1" d="M189.491 133.74C189.491 133.74 189.974 135.111 191.185 134.967C192.396 134.823 189.491 133.74 189.491 133.74Z" fill="black"/>
<path opacity="0.1" d="M183.237 163.483C183.165 163.898 183.102 164.209 183.102 164.209C183.102 164.209 174.772 161.103 174.144 160.87C173.929 160.786 173.917 160.504 174.001 160.169C175.399 158.916 178.649 161.21 178.649 161.21C178.649 161.21 181.983 162.077 183.237 163.483Z" fill="black"/>
<path d="M178.028 177.177C178.029 177.186 178.029 177.196 178.028 177.205C178.028 177.205 178.364 179.145 178.272 180.018C178.18 180.891 175.704 180.453 174.737 180.018C173.771 179.583 164.571 175.796 163.518 175.508C162.466 175.22 157.806 171.918 156.16 169.108C155.366 167.745 156.051 167.379 157.069 167.454C158.117 167.558 159.137 167.851 160.081 168.319C160.944 168.834 162.986 168.146 164.629 168.29C166.271 168.434 168.409 168.002 169.424 167.515C170.439 167.028 172.18 162.904 173.342 160.919C174.504 158.933 178.284 161.599 178.284 161.599C178.284 161.599 182.133 162.599 183.114 164.209C184.095 165.82 179.662 171.289 179.823 172.304C179.984 173.318 178.203 176.828 178.028 177.177Z" fill="#464A5F"/>
<path d="M178.261 180.018C178.16 180.882 175.692 180.453 174.726 180.018C173.759 179.583 164.56 175.796 163.507 175.508C162.454 175.22 157.794 171.918 156.149 169.108C155.355 167.745 156.039 167.379 157.058 167.454C157.606 168.623 158.463 169.62 159.537 170.336C162.394 172.353 168.59 175.2 168.59 175.2C168.59 175.2 172.076 175.056 173.673 176.064C174.726 176.736 176.774 177.027 178.039 177.151C178.041 177.16 178.041 177.17 178.039 177.179C178.039 177.179 178.353 179.145 178.261 180.018Z" fill="#464A5F"/>
<path d="M176.903 164.509C176.903 164.509 173.466 171.044 173.466 171.482C173.466 171.92 172.111 175.992 172.111 175.992L174.507 176.963L175.404 171.724L178.597 165.42L176.903 164.509Z" fill="#464A5F"/>
<path opacity="0.1" d="M239.451 161.247C238.919 164.111 230.157 164.595 230.289 164.5C230.322 164.24 230.306 163.976 230.24 163.722C231.4 162.31 234.604 162.31 234.604 162.31C235.762 161.097 237.34 160.375 239.014 160.293C239.25 160.826 239.451 161.247 239.451 161.247Z" fill="black"/>
<path d="M245.403 176.571C245.017 178.173 235.818 181.614 235.818 181.614C235.818 181.614 226.233 181.957 224.154 181.182C223.535 180.995 223.008 180.584 222.675 180.029C222.307 179.32 222.577 178.588 223.083 178.378C223.909 178.038 227.64 176.923 227.64 176.923C227.64 176.923 230.157 173.819 231.124 172.701C232.09 171.583 230.931 169.598 229.973 166.362C229.015 163.126 234.604 163.094 234.604 163.094C237.121 160.524 240.026 161.103 240.026 161.103C240.026 161.103 240.363 166.731 242.155 168.765C243.947 170.8 244.235 174.102 244.235 174.102C244.312 174.147 244.386 174.197 244.456 174.252C244.876 174.563 245.699 175.358 245.403 176.571Z" fill="#464A5F"/>
<path d="M245.403 176.571C245.017 178.173 235.818 181.614 235.818 181.614C235.818 181.614 226.233 181.957 224.154 181.182C223.535 180.995 223.008 180.584 222.675 180.029C224.657 180.34 228.394 180.894 229.003 180.755C229.823 180.562 233.031 180.899 234.86 179.297C236.69 177.695 239.463 176.58 239.463 176.58C239.463 176.58 242.762 175.237 244.474 174.275C244.876 174.563 245.699 175.358 245.403 176.571Z" fill="#464A5F"/>
<path d="M235.867 165.907L237.561 172.307L239.742 177.349L241.485 176.525L238.919 171.63L237.078 165.907H235.867Z" fill="#464A5F"/>
<path opacity="0.1" d="M178.597 165.42L176.903 164.509C176.903 164.509 173.466 171.044 173.466 171.482C173.466 171.828 172.603 174.471 172.26 175.543C171.05 175.287 169.814 175.177 168.578 175.214C168.578 175.214 162.382 172.356 159.526 170.35C158.452 169.634 157.594 168.638 157.046 167.468C156.028 167.408 155.343 167.757 156.137 169.122C157.783 171.932 162.428 175.228 163.495 175.522C164.563 175.816 173.756 179.597 174.714 180.032C175.672 180.467 178.149 180.897 178.249 180.032C178.35 179.168 178.005 177.22 178.005 177.22C178.006 177.21 178.006 177.2 178.005 177.191C176.833 177.099 175.676 176.877 174.553 176.531L175.373 171.739L178.597 165.42Z" fill="black"/>
<path opacity="0.1" d="M244.462 174.252C243.556 174.77 242.204 175.39 241.134 175.86L238.919 171.627L237.081 165.907H235.87L237.564 172.307L239.414 176.589C239.077 176.73 236.566 177.799 234.854 179.289C233.013 180.891 229.818 180.554 228.998 180.747C228.397 180.885 224.66 180.332 222.669 180.021C223.002 180.575 223.529 180.986 224.148 181.173C226.228 181.948 235.812 181.606 235.812 181.606C235.812 181.606 245.017 178.165 245.397 176.563C245.699 175.358 244.876 174.563 244.462 174.252Z" fill="black"/>
<path d="M200.221 40.0626C200.221 40.0626 204.512 34.9881 205.87 34.1784C207.228 33.3687 212.679 30.4612 212.679 30.4612C212.679 30.4612 213.904 31.4323 213.453 32.2708C213.453 32.2708 214.1 33.8874 214.485 34.0833C214.871 34.2793 219.166 39.5785 218.875 41.7454C218.585 43.9124 216.421 43.5234 215.55 43.1862C214.678 42.8491 207.935 41.538 207.935 41.538L200.221 40.0626Z" fill="#3B82F6"/>
<path opacity="0.1" d="M206.773 36.5729C206.773 36.5729 209.71 35.7085 209.938 36.5729C210.165 37.4374 206.773 36.5729 206.773 36.5729Z" fill="black"/>
<path opacity="0.1" d="M215.092 50.2864C215.033 50.3422 214.971 50.3942 214.905 50.4421C214.33 50.8282 208.174 50.8282 206.773 50.8282C205.605 50.8282 200.065 54.6837 197.974 56.2052C198.437 55.116 198.788 54.2745 198.788 54.2745C201.253 49.8139 213.404 48.7419 214.37 49.324C214.686 49.5812 214.933 49.9116 215.092 50.2864Z" fill="black"/>
<path d="M215.679 48.6957C215.679 48.6957 215.486 49.6639 214.905 50.0529C214.324 50.4419 208.174 50.4419 206.773 50.4419C205.372 50.4419 197.568 56.0668 197.189 56.4068C196.809 56.7468 194.669 58.4902 194.669 56.9831C194.669 55.476 191.476 52.7616 191.433 52.5685C191.529 51.7627 191.324 50.9496 190.857 50.2863C190.368 49.5717 190.768 47.5661 191.177 46.0475C191.332 45.4751 191.608 44.9428 191.987 44.4868C192.365 44.0309 192.838 43.6619 193.371 43.4051C195.146 42.5406 197.928 41.1661 199.378 40.2527C199.732 40.025 200.324 39.9328 201.072 39.9299C204.973 39.9299 213.044 42.4859 213.044 42.4859C213.064 42.5949 213.096 42.7012 213.139 42.8029C213.62 43.8892 215.44 44.1947 216.554 44.9525C217.765 45.7853 215.679 48.6957 215.679 48.6957Z" fill="#5F5D7E"/>
<path opacity="0.1" d="M193.363 48.2578C193.363 48.2578 198.057 48.4994 198.302 48.7181C198.546 48.9367 193.363 48.2578 193.363 48.2578Z" fill="black"/>
<path opacity="0.1" d="M206.241 53.3033C206.241 53.3033 198.897 56.8908 199.447 59.8012C199.447 59.8012 200.382 60.8184 199.947 61.9336C199.513 63.0488 199.125 70.9039 199.66 71.486C200.195 72.0681 200.773 73.4743 200.482 74.4454C200.192 75.4165 200.917 79.7792 200.917 79.7792C200.917 79.7792 201.984 81.9605 200.724 82.4475C199.464 82.9345 200.58 84.5309 200.58 84.5309C200.58 84.5309 200.58 86.5192 199.401 86.6171C198.221 86.7151 199.176 89.2365 199.176 89.2365C199.176 89.2365 198.601 90.9337 197.675 90.7868C196.749 90.6398 198.207 93.2131 198.207 93.2131C198.207 93.2131 194.672 95.5875 195.109 99.5179L194.62 102.183L201.59 105.192L202.51 103.446C202.51 103.446 204.397 103.008 204.156 101.843C203.914 100.679 205.416 100.002 205.416 100.002C205.416 100.002 205.703 98.2068 206.673 97.4317C207.642 96.6565 209.141 93.3571 209.141 93.3571C209.141 93.3571 210.004 91.5158 211.223 90.7407C212.443 89.9655 213.401 86.182 213.401 86.182L214.129 60.1384C214.129 60.1384 211.468 52.1391 206.241 53.3033Z" fill="black"/>
<path opacity="0.1" d="M207.789 53.3033C207.789 53.3033 200.448 56.8908 200.994 59.8012C200.994 59.8012 201.932 60.8184 201.495 61.9336C201.058 63.0488 200.672 70.9039 201.207 71.486C201.742 72.0681 202.32 73.4743 202.03 74.4454C201.739 75.4165 202.467 79.7792 202.467 79.7792C202.467 79.7792 203.531 81.9605 202.274 82.4475C201.017 82.9345 202.128 84.5309 202.128 84.5309C202.128 84.5309 202.145 86.5192 200.951 86.6171C199.757 86.7151 200.724 89.2365 200.724 89.2365C200.724 89.2365 200.149 90.9337 199.222 90.7868C198.296 90.6398 199.757 93.2131 199.757 93.2131C199.757 93.2131 196.222 95.5875 196.656 99.5179L196.173 102.183L203.146 105.192L204.064 103.446C204.064 103.446 205.954 103.008 205.709 101.843C205.465 100.679 206.969 100.002 206.969 100.002C206.969 100.002 207.257 98.2068 208.229 97.4317C209.201 96.6565 210.697 93.3571 210.697 93.3571C210.697 93.3571 211.56 91.5158 212.78 90.7407C213.999 89.9655 214.957 86.182 214.957 86.182L215.682 60.1384C215.682 60.1384 213.03 52.1391 207.789 53.3033Z" fill="black"/>
<path d="M207.015 53.3033C207.015 53.3033 199.671 56.8908 200.221 59.8012C200.221 59.8012 201.158 60.8184 200.721 61.9336C200.284 63.0488 199.898 70.9039 200.433 71.486C200.968 72.0681 201.547 73.4743 201.256 74.4454C200.966 75.4165 201.693 79.7792 201.693 79.7792C201.693 79.7792 202.758 81.9605 201.498 82.4475C200.238 82.9345 201.354 84.5309 201.354 84.5309C201.354 84.5309 201.368 86.5192 200.175 86.6171C198.981 86.7151 199.95 89.2365 199.95 89.2365C199.95 89.2365 199.375 90.9337 198.449 90.7868C197.522 90.6398 198.981 93.2131 198.981 93.2131C198.981 93.2131 195.448 95.5875 195.883 99.5179L195.399 102.183L202.369 105.192L203.29 103.446C203.29 103.446 205.177 103.008 204.935 101.843C204.694 100.679 206.195 100.002 206.195 100.002C206.195 100.002 206.483 98.2068 207.452 97.4317C208.422 96.6565 209.923 93.3571 209.923 93.3571C209.923 93.3571 210.786 91.5158 212.003 90.7407C213.22 89.9655 214.181 86.182 214.181 86.182L214.905 60.1384C214.905 60.1384 212.242 52.1391 207.015 53.3033Z" fill="#3B82F6"/>
<path opacity="0.1" d="M201.932 86.2368C201.932 86.2368 203.917 88.13 203.917 88.6631C203.917 89.1962 201.302 87.692 201.302 87.692L201.932 86.2368Z" fill="black"/>
<path opacity="0.1" d="M200.77 90.8848C200.77 90.8848 202.706 93.0661 202.076 93.1641C201.446 93.2621 200.77 90.8848 200.77 90.8848Z" fill="black"/>
<path opacity="0.1" d="M203.917 97.7229C203.917 97.7229 199.51 98.4491 200.528 98.7401C201.547 99.0311 203.917 97.7229 203.917 97.7229Z" fill="black"/>
<path opacity="0.1" d="M205.151 83.3208C205.151 83.3208 213.113 86.9084 211.767 87.8795C210.421 88.8505 205.151 83.3208 205.151 83.3208Z" fill="black"/>
<path opacity="0.1" d="M213.131 42.8087C212.941 42.6618 200.221 40.0626 200.221 40.0626L201.063 39.9358C204.964 39.9358 213.036 42.4917 213.036 42.4917C213.055 42.6007 213.087 42.7071 213.131 42.8087Z" fill="black"/>
<path opacity="0.1" d="M204.061 24.188C204.061 24.188 207.869 29.2163 209.676 27.934C211.482 26.6517 206.837 23.8019 204.061 24.188Z" fill="black"/>
<path opacity="0.1" d="M195.397 53.5453C195.397 53.5453 198.627 52.5742 198.9 52.3927C199.173 52.2112 195.397 53.5453 195.397 53.5453Z" fill="black"/>
<path opacity="0.1" d="M210.519 48.6697C210.519 48.6697 213.881 48.9573 214.204 48.8682C214.526 48.779 210.519 48.6697 210.519 48.6697Z" fill="black"/>
<path opacity="0.1" d="M212.279 45.2034C212.279 45.2034 215.639 45.491 215.964 45.399C216.289 45.3069 212.279 45.2034 212.279 45.2034Z" fill="black"/>
<path opacity="0.1" d="M202.87 44.99C202.87 44.99 206.23 45.2776 206.555 45.1885C206.88 45.0993 202.87 44.99 202.87 44.99Z" fill="black"/>
<path opacity="0.1" d="M194.62 51.8078C194.62 51.8078 197.847 50.8367 198.121 50.6552C198.394 50.4736 194.62 51.8078 194.62 51.8078Z" fill="black"/>
<path d="M305.425 137.154L303.236 172.252C303.153 173.562 302.575 174.792 301.62 175.691C300.664 176.59 299.404 177.091 298.093 177.093H271.712C270.401 177.091 269.14 176.59 268.185 175.691C267.23 174.792 266.652 173.562 266.569 172.252L264.379 137.154C264.371 136.979 264.398 136.804 264.459 136.64C264.52 136.476 264.614 136.326 264.735 136.199C264.856 136.072 265.001 135.972 265.162 135.903C265.323 135.834 265.496 135.799 265.671 135.8H304.162C304.337 135.801 304.51 135.838 304.67 135.908C304.83 135.978 304.974 136.08 305.094 136.208C305.213 136.336 305.305 136.487 305.365 136.651C305.424 136.816 305.45 136.991 305.44 137.166L305.425 137.154Z" fill="#464A5F"/>
<path d="M280.342 135.019C281.012 135.287 282.171 135.794 282.171 134.84C282.171 134.44 281.843 134.408 281.532 134.304C280.365 133.88 279.368 133.086 278.693 132.042C277.474 130.238 277.192 128.437 277.192 126.279C277.192 121.502 283.762 120.637 283.762 115.856C283.762 114.027 282.611 113.491 282.611 112.975C282.611 112.646 282.715 112.646 283.043 112.646C284.231 112.646 285.882 114.629 286.385 115.597C286.666 116.099 286.79 116.675 286.742 117.248C286.742 118.291 286.638 119.363 286.638 120.418C286.638 124.438 291.379 123.366 291.379 121.429C291.379 120.536 290.844 119.701 290.844 118.836C290.844 118.732 290.844 118.657 290.95 118.657C291.454 118.657 292.345 119.81 292.599 120.162C293.462 121.487 293.861 123.259 293.861 124.835C293.861 129.659 289.478 132.132 289.478 133.175C289.478 133.322 289.909 134.327 291.275 133.463C295.691 131.215 299.169 126.374 299.169 120.092C299.169 115.09 297.874 111.502 294.396 107.794C293.821 107.183 291.96 105.278 291.054 105.278C289.834 105.278 292.124 108.047 292.124 109.923C292.139 110.168 292.101 110.412 292.015 110.641C291.928 110.87 291.794 111.078 291.621 111.251C291.448 111.424 291.24 111.558 291.011 111.645C290.783 111.731 290.538 111.768 290.294 111.753C288.569 111.753 288.14 107.973 287.933 106.797C287.07 101.763 286.029 98.1319 281.029 95.7633C279.484 95.0198 275.604 94.0055 275.604 95.4377C275.604 95.795 276.007 96.0457 276.288 96.1955C277.655 97.0283 279.202 99.3825 279.202 101.884C279.202 108.748 270.625 115.015 270.625 122.161C270.596 128.161 274.801 132.97 280.33 134.996L280.342 135.019Z" fill="#3B82F6"/>
</g>
<defs>
<clipPath id="clip0_87_700">
<rect x="0" y="0" width="100%" height="100%" />
</clipPath>
</defs>
</svg>

